<mxfile host="app.diagrams.net" modified="2024-05-28T12:43:03.968Z" agent="Mozilla/5.0 (Windows NT 10.0; Win64; x64) AppleWebKit/537.36 (KHTML, like Gecko) Chrome/125.0.0.0 Safari/537.36" version="24.2.0" etag="AXOjnXoJbazUX2dDnD_8" type="github">
  <diagram name="PÃ¡gina-1" id="HNZ5bi70Dwu1Waw-SBR6">
    <mxGraphModel>
      <root>
        <mxCell id="0" />
        <mxCell id="1" parent="0" />
      </root>
    </mxGraphModel>
  </diagram>
</mxfile>
